<svg width="17" height="17" viewBox="0 0 17 17" fill="none" xmlns="http://www.w3.org/2000/svg">
<path fill-rule="evenodd" clip-rule="evenodd" d="M7.18893 0.663339C7.34184 0.46538 7.53151 0.304206 7.74571 0.190212C7.9599 0.0762174 8.19385 0.0119347 8.43248 0.00150955C8.67111 -0.00891562 8.90912 0.0347482 9.13115 0.129685C9.35318 0.224621 9.55431 0.368723 9.72155 0.552694L9.81383 0.663339L13.1736 5.0135H15.7241C15.9035 5.01309 16.0808 5.05355 16.2447 5.13225C16.4085 5.21095 16.555 5.3261 16.6747 5.47016C16.7945 5.61422 16.8846 5.78395 16.9393 5.96822C16.994 6.15249 17.012 6.34716 16.9922 6.53946L16.9136 7.24574L16.8281 7.92805L16.758 8.43886L16.6769 8.98747L16.5846 9.56374L16.4803 10.1612L16.3641 10.7707C16.3026 11.0777 16.2368 11.3857 16.1659 11.6918C15.9767 12.5014 15.7393 13.2969 15.455 14.0734L15.2662 14.5713L15.0833 15.0213L14.9107 15.4214L14.8304 15.6003L14.6176 16.0521C14.3442 16.6145 13.8281 16.9465 13.2821 16.9944L13.1454 16.9999H3.84883C3.5501 17.0025 3.25634 16.9173 2.99898 16.7536C2.74162 16.5899 2.53033 16.3538 2.3877 16.0705L2.18947 15.6556L2.03567 15.3145C2.00828 15.2516 1.98122 15.1886 1.95449 15.1254L1.7836 14.7115C1.39349 13.7336 1.07689 12.7235 0.836855 11.6909C0.79049 11.4904 0.746055 11.2894 0.703559 11.0879L0.582226 10.4904L0.473709 9.90581L0.378009 9.3406L0.292563 8.79937L0.218225 8.28856L0.154995 7.81556L0.0780929 7.18581L0.0216984 6.67316C0.0167722 6.62615 0.0119303 6.57912 0.00717262 6.53209C-0.0107385 6.3509 0.00497724 6.16768 0.0534025 5.99311C0.101828 5.81855 0.181992 5.65614 0.289217 5.51538C0.396441 5.37461 0.528577 5.2583 0.677912 5.17324C0.827246 5.08818 0.990787 5.03607 1.15899 5.01995L1.27519 5.0135H3.82918L7.18893 0.663339ZM6.75913 9.36734C6.70133 9.1498 6.5714 8.96278 6.39408 8.84192C6.21677 8.72106 6.00445 8.67479 5.79757 8.71192C5.59068 8.74905 5.40368 8.86699 5.27217 9.04329C5.14065 9.21958 5.07382 9.4419 5.08439 9.66793L5.09549 9.77488L5.52273 12.541L5.54409 12.6461C5.60189 12.8636 5.73182 13.0507 5.90913 13.1715C6.08645 13.2924 6.29876 13.3387 6.50565 13.3015C6.71253 13.2644 6.89954 13.1464 7.03105 12.9702C7.16257 12.7939 7.2294 12.5715 7.21883 12.3455L7.20772 12.2386L6.78049 9.47246L6.75913 9.36734ZM11.2049 8.71454C10.9984 8.67737 10.7864 8.72332 10.6092 8.84365C10.432 8.96399 10.3019 9.15034 10.2436 9.36734L10.2223 9.47246L9.79504 12.2386C9.75937 12.4705 9.80719 12.7085 9.92872 12.9037C10.0502 13.0989 10.2363 13.2366 10.4488 13.2886C10.6613 13.3407 10.8842 13.3032 11.072 13.1837C11.2597 13.0643 11.398 12.872 11.4587 12.6461L11.48 12.541L11.9073 9.77488C11.9443 9.53378 11.8912 9.28667 11.7595 9.08784C11.6278 8.88902 11.4283 8.75475 11.2049 8.71454ZM8.50138 1.84354L6.05335 5.0135H10.9494L8.50138 1.84354Z" fill="#545454"/>
</svg>
