<svg width="105" height="105" viewBox="0 0 105 105" fill="none" xmlns="http://www.w3.org/2000/svg">
<circle cx="52.5" cy="52.5" r="52.5" fill="#DBC8B8"/>
<path d="M52.5 82C45.6948 80.25 40.0763 76.262 35.6446 70.036C31.2129 63.81 28.998 56.898 29 49.3V31L52.5 22L76 31V49.3C76 52.45 75.5956 55.513 74.7868 58.489C73.978 61.465 72.8158 64.302 71.3 67L62.6344 58.15C63.1729 57.2 63.5773 56.213 63.8476 55.189C64.1178 54.165 64.252 53.102 64.25 52C64.25 48.7 63.0995 45.875 60.7984 43.525C58.4974 41.175 55.7313 40 52.5 40C49.2687 40 46.5026 41.175 44.2016 43.525C41.9005 45.875 40.75 48.7 40.75 52C40.75 55.3 41.9005 58.125 44.2016 60.475C46.5026 62.825 49.2687 64 52.5 64C53.5281 64 54.5445 63.863 55.5491 63.589C56.5538 63.315 57.4957 62.902 58.375 62.35L67.8484 71.95C65.7922 74.4 63.4784 76.5 60.9071 78.25C58.3358 80 55.5335 81.25 52.5 82ZM52.5 58C50.8844 58 49.5018 57.413 48.3523 56.239C47.2027 55.065 46.627 53.652 46.625 52C46.625 50.35 47.2008 48.938 48.3523 47.764C49.5038 46.59 50.8863 46.002 52.5 46C54.1156 46 55.4992 46.588 56.6507 47.764C57.8022 48.94 58.377 50.352 58.375 52C58.375 53.65 57.8002 55.063 56.6507 56.239C55.5011 57.415 54.1176 58.002 52.5 58Z" fill="#434343"/>
</svg>
