<svg width="108" height="109" viewBox="0 0 108 109" fill="none" xmlns="http://www.w3.org/2000/svg">
<circle cx="54" cy="54.3784" r="54" fill="#DBC8B8"/>
<path d="M39.25 36.3784C37.062 36.3784 34.9635 37.2476 33.4164 38.7948C31.8692 40.342 31 42.4404 31 44.6284V48.3784H79V44.6284C79 42.4404 78.1308 40.342 76.5836 38.7948C75.0365 37.2476 72.938 36.3784 70.75 36.3784H39.25ZM79 51.3784H31V64.1284C31 66.3165 31.8692 68.4149 33.4164 69.9621C34.9635 71.5092 37.062 72.3784 39.25 72.3784H70.75C72.938 72.3784 75.0365 71.5092 76.5836 69.9621C78.1308 68.4149 79 66.3165 79 64.1284V51.3784ZM65.5 63.3784H71.5C71.8978 63.3784 72.2794 63.5365 72.5607 63.8178C72.842 64.0991 73 64.4806 73 64.8784C73 65.2762 72.842 65.6578 72.5607 65.9391C72.2794 66.2204 71.8978 66.3784 71.5 66.3784H65.5C65.1022 66.3784 64.7206 66.2204 64.4393 65.9391C64.158 65.6578 64 65.2762 64 64.8784C64 64.4806 64.158 64.0991 64.4393 63.8178C64.7206 63.5365 65.1022 63.3784 65.5 63.3784Z" fill="#434343"/>
</svg>
