<svg width="14" height="18" viewBox="0 0 14 18" fill="none" xmlns="http://www.w3.org/2000/svg">
<path d="M6.71686 8.19815C6.09914 8.19815 5.50672 7.97085 5.06992 7.56626C4.63313 7.16167 4.38774 6.61292 4.38774 6.04074C4.38774 5.46856 4.63313 4.91982 5.06992 4.51522C5.50672 4.11063 6.09914 3.88333 6.71686 3.88333C7.33459 3.88333 7.92701 4.11063 8.3638 4.51522C8.8006 4.91982 9.04599 5.46856 9.04599 6.04074C9.04599 6.32406 8.98574 6.6046 8.8687 6.86635C8.75165 7.12809 8.58008 7.36592 8.3638 7.56626C8.14752 7.76659 7.89076 7.92551 7.60818 8.03393C7.3256 8.14235 7.02273 8.19815 6.71686 8.19815ZM6.71686 0C4.98724 0 3.32846 0.636433 2.10543 1.76929C0.882402 2.90215 0.195313 4.43864 0.195312 6.04074C0.195313 10.5713 6.71686 17.2593 6.71686 17.2593C6.71686 17.2593 13.2384 10.5713 13.2384 6.04074C13.2384 4.43864 12.5513 2.90215 11.3283 1.76929C10.1053 0.636433 8.44649 0 6.71686 0Z" fill="#545454"/>
</svg>
