<svg width="5" height="8" viewBox="0 0 5 8" fill="none" xmlns="http://www.w3.org/2000/svg">
<path d="M4.14548 3.58338L0.103808 6.709C0.0705323 6.73418 0.0442252 6.76409 0.0264087 6.79698C0.00859213 6.82987 -0.000380039 6.86509 1.23978e-05 6.90061C0.000404358 6.93612 0.0101523 6.97123 0.0286927 7.00389C0.0472326 7.03655 0.0741963 7.06613 0.108024 7.0909C0.141851 7.11566 0.18187 7.13514 0.225765 7.14819C0.26966 7.16125 0.31656 7.16762 0.363749 7.16694C0.410939 7.16627 0.457481 7.15856 0.500684 7.14425C0.543887 7.12995 0.582891 7.10935 0.615442 7.08363L4.89889 3.77069C4.96372 3.72054 5 3.65334 5 3.58338C5 3.51341 4.96372 3.44621 4.89889 3.39606L0.615442 0.0831265C0.582891 0.0574064 0.543887 0.0367999 0.500684 0.0224981C0.457481 0.00819683 0.410939 0.000484943 0.363749 -0.000191212C0.31656 -0.00086689 0.26966 0.00550604 0.225765 0.0185595C0.18187 0.0316129 0.141851 0.0510874 0.108024 0.0758567C0.0741963 0.100626 0.0472326 0.130198 0.0286927 0.16286C0.0101523 0.195523 0.000404358 0.230628 1.23978e-05 0.266145C-0.000380039 0.301661 0.00859213 0.336884 0.0264087 0.369774C0.0442252 0.402664 0.0705323 0.432569 0.103808 0.457757L4.14548 3.58338Z" fill="#545454"/>
</svg>
