<svg width="102" height="103" viewBox="0 0 102 103" fill="none" xmlns="http://www.w3.org/2000/svg">
<circle cx="51" cy="51.3784" r="51" fill="#DBC8B8"/>
<g clip-path="url(#clip0_611_19)">
<path fill-rule="evenodd" clip-rule="evenodd" d="M50.9536 30.7355C49.4606 30.7085 47.9769 30.9763 46.5875 31.5233C45.1982 32.0704 43.9303 32.8861 42.8565 33.9238C41.7827 34.9614 40.9241 36.2006 40.3297 37.5704C39.7354 38.9403 39.417 40.4139 39.3929 41.9069V57.5212C39.3929 58.4684 39.0166 59.3768 38.3468 60.0466C37.677 60.7164 36.7686 61.0926 35.8214 61.0926H31.3571C29.9363 61.0926 28.5737 60.5282 27.5691 59.5236C26.5644 58.5189 26 57.1563 26 55.7355V48.5926C26 47.1718 26.5644 45.8092 27.5691 44.8046C28.5737 43.7999 29.9363 43.2355 31.3571 43.2355H34.0357V41.8426C34.0683 39.6476 34.533 37.4805 35.4032 35.4651C36.2734 33.4497 37.5321 31.6254 39.1075 30.0965C40.6828 28.5676 42.5439 27.364 44.5844 26.5545C46.625 25.7449 48.805 25.3453 51 25.3784C53.195 25.3453 55.375 25.7449 57.4156 26.5545C59.4561 27.364 61.3172 28.5676 62.8925 30.0965C64.4679 31.6254 65.7266 33.4497 66.5968 35.4651C67.467 37.4805 67.9317 39.6476 67.9643 41.8426V43.2355H70.6429C72.0637 43.2355 73.4263 43.7999 74.4309 44.8046C75.4356 45.8092 76 47.1718 76 48.5926V55.7355C76 57.1563 75.4356 58.5189 74.4309 59.5236C73.4263 60.5282 72.0637 61.0926 70.6429 61.0926H67.9643V62.8784C67.9647 65.2918 67.0766 67.6209 65.4693 69.4212C63.862 71.2215 61.648 72.367 59.25 72.6391C58.7843 73.4705 58.1052 74.1627 57.2828 74.6442C56.4604 75.1258 55.5244 75.3792 54.5714 75.3784H49.2143C47.7935 75.3784 46.4309 74.8139 45.4262 73.8093C44.4216 72.8046 43.8571 71.442 43.8571 70.0212C43.8571 68.6004 44.4216 67.2378 45.4262 66.2331C46.4309 65.2285 47.7935 64.6641 49.2143 64.6641H54.5714C56.5071 64.6641 58.2036 65.6891 59.1429 67.2284C60.1272 67.0021 61.0058 66.4487 61.635 65.6586C62.2643 64.8685 62.607 63.8884 62.6071 62.8784V41.9034C62.5826 40.4026 62.2609 38.9217 61.6606 37.5461C61.0602 36.1704 60.1932 34.9274 59.1095 33.889C58.0259 32.8505 56.7471 32.0371 55.3472 31.4958C53.9473 30.9545 52.454 30.6961 50.9536 30.7355Z" fill="#434343"/>
</g>
<defs>
<clipPath id="clip0_611_19">
<rect width="50" height="50" fill="white" transform="translate(26 25.3784)"/>
</clipPath>
</defs>
</svg>
