<svg width="8" height="12" viewBox="0 0 8 12" fill="none" xmlns="http://www.w3.org/2000/svg">
<path d="M6.63277 6.09261L0.166093 10.8332C0.112852 10.8714 0.0707603 10.9168 0.042254 10.9666C0.0137477 11.0165 -0.000607491 11.0699 1.95503e-05 11.1238C0.000647068 11.1777 0.0162444 11.2309 0.0459085 11.2805C0.0755725 11.33 0.118714 11.3748 0.172838 11.4124C0.226962 11.45 0.290992 11.4795 0.361224 11.4993C0.431456 11.5191 0.506495 11.5288 0.581999 11.5278C0.657502 11.5267 0.731971 11.515 0.801095 11.4933C0.87022 11.4717 0.932627 11.4404 0.984707 11.4014L7.83823 6.37671C7.94196 6.30065 8 6.19872 8 6.09261C8 5.98649 7.94196 5.88457 7.83823 5.80851L0.984707 0.783823C0.932627 0.744814 0.87022 0.71356 0.801095 0.691869C0.731971 0.670178 0.657502 0.658482 0.581999 0.657456C0.506495 0.656431 0.431456 0.666097 0.361224 0.685895C0.290992 0.705693 0.226962 0.73523 0.172838 0.772797C0.118714 0.810364 0.0755725 0.855215 0.0459085 0.904755C0.0162444 0.954293 0.000647068 1.00754 1.95503e-05 1.06141C-0.000607491 1.11527 0.0137477 1.16869 0.042254 1.21858C0.0707603 1.26846 0.112852 1.31382 0.166093 1.35202L6.63277 6.09261Z" fill="black"/>
</svg>
