<svg width="23" height="15" viewBox="0 0 23 15" fill="none" xmlns="http://www.w3.org/2000/svg">
<path d="M3.63197 0C2.72051 0 1.84638 0.32924 1.20189 0.915291C0.557388 1.50134 0.195313 2.2962 0.195312 3.125V4.75H22.1899V3.125C22.1899 2.2962 21.8278 1.50134 21.1833 0.915291C20.5388 0.32924 19.6647 0 18.7533 0H3.63197ZM0.195312 11.875V6H22.1899V11.875C22.1899 12.7038 21.8278 13.4987 21.1833 14.0847C20.5388 14.6708 19.6647 15 18.7533 15H3.63197C2.72051 15 1.84638 14.6708 1.20189 14.0847C0.557388 13.4987 0.195312 12.7038 0.195312 11.875ZM15.1791 10.25C14.9968 10.25 14.822 10.3158 14.6931 10.4331C14.5642 10.5503 14.4918 10.7092 14.4918 10.875C14.4918 11.0408 14.5642 11.1997 14.6931 11.3169C14.822 11.4342 14.9968 11.5 15.1791 11.5H18.2034C18.3857 11.5 18.5605 11.4342 18.6894 11.3169C18.8183 11.1997 18.8907 11.0408 18.8907 10.875C18.8907 10.7092 18.8183 10.5503 18.6894 10.4331C18.5605 10.3158 18.3857 10.25 18.2034 10.25H15.1791Z" fill="#545454"/>
</svg>
