<svg width="7" height="12" viewBox="0 0 7 12" fill="none" xmlns="http://www.w3.org/2000/svg">
<path d="M0.188113 10.1946C0.128024 10.2477 0.0810475 10.3102 0.0498662 10.3785C0.0186849 10.4468 0.00390911 10.5195 0.00638294 10.5925C0.00885677 10.6656 0.028532 10.7375 0.0642843 10.8042C0.100037 10.8709 0.151167 10.9311 0.214755 10.9813C0.278343 11.0315 0.353145 11.0707 0.434887 11.0968C0.516631 11.1228 0.603714 11.1351 0.691167 11.1331C0.778621 11.131 0.864731 11.1146 0.944581 11.0847C1.02443 11.0548 1.09646 11.0121 1.15655 10.959L6.81794 5.95189C6.93486 5.84859 7 5.71183 7 5.56968C7 5.42753 6.93486 5.29076 6.81794 5.18747L1.15655 0.179777C1.09685 0.1255 1.02484 0.0816689 0.944699 0.0508337C0.864556 0.0199986 0.777877 0.00277233 0.689696 0.000155449C0.601515 -0.00246143 0.51359 0.00958347 0.431029 0.0355902C0.348468 0.0615969 0.272916 0.101047 0.208763 0.151649C0.144608 0.202251 0.0931311 0.262998 0.0573201 0.330359C0.0215092 0.397719 0.00207901 0.470353 0.000157833 0.54404C-0.00176334 0.617725 0.0138626 0.690997 0.0461287 0.759596C0.0783944 0.828196 0.126657 0.890756 0.188113 0.943643L5.41791 5.56968L0.188113 10.1946Z" fill="#AAAAAA"/>
</svg>
