<svg width="18" height="9" viewBox="0 0 18 9" fill="none" xmlns="http://www.w3.org/2000/svg">
<path d="M9 7.46186L1.15023 0.186854C1.08697 0.126958 1.01186 0.0796051 0.929264 0.0475359C0.846663 0.0154657 0.758204 -0.000683784 0.669007 2.19345e-05C0.57981 0.000727654 0.491645 0.0182743 0.409615 0.0516472C0.327585 0.0850191 0.253318 0.133554 0.191112 0.194443C0.128906 0.255332 0.0799964 0.327366 0.0472132 0.406377C0.01443 0.485388 -0.00157572 0.569807 0.000122241 0.654749C0.0018202 0.73969 0.0211882 0.823467 0.0571053 0.901232C0.0930224 0.978997 0.144776 1.04921 0.20937 1.1078L8.52957 8.818C8.65551 8.9347 8.82429 9 9 9C9.17571 9 9.34449 8.9347 9.47043 8.818L17.7906 1.1078C17.8552 1.04921 17.907 0.978997 17.9429 0.901232C17.9788 0.823467 17.9982 0.73969 17.9999 0.654749C18.0016 0.569807 17.9856 0.485388 17.9528 0.406377C17.92 0.327366 17.8711 0.255332 17.8089 0.194443C17.7467 0.133554 17.6724 0.0850191 17.5904 0.0516472C17.5084 0.0182743 17.4202 0.000727654 17.331 2.19345e-05C17.2418 -0.000683784 17.1533 0.0154657 17.0707 0.0475359C16.9881 0.0796051 16.913 0.126958 16.8498 0.186854L9 7.46186Z" fill="#545454"/>
</svg>
