<svg width="108" height="109" viewBox="0 0 108 109" fill="none" xmlns="http://www.w3.org/2000/svg">
<circle cx="54" cy="54.3784" r="54" fill="#DBC8B8"/>
<path d="M45 74.3784C42.9167 74.3784 41.1458 73.6493 39.6875 72.1909C38.2292 70.7326 37.5 68.9618 37.5 66.8784H32.5V39.3784C32.5 38.0034 32.99 36.8268 33.97 35.8484C34.95 34.8701 36.1267 34.3801 37.5 34.3784H72.5V44.3784H80L87.5 54.3784V66.8784H82.5C82.5 68.9618 81.7708 70.7326 80.3125 72.1909C78.8542 73.6493 77.0833 74.3784 75 74.3784C72.9167 74.3784 71.1458 73.6493 69.6875 72.1909C68.2292 70.7326 67.5 68.9618 67.5 66.8784H52.5C52.5 68.9618 51.7708 70.7326 50.3125 72.1909C48.8542 73.6493 47.0833 74.3784 45 74.3784ZM45 69.3784C45.7083 69.3784 46.3025 69.1384 46.7825 68.6584C47.2625 68.1784 47.5017 67.5851 47.5 66.8784C47.5 66.1701 47.26 65.5768 46.78 65.0984C46.3 64.6201 45.7067 64.3801 45 64.3784C44.2917 64.3784 43.6983 64.6184 43.22 65.0984C42.7417 65.5784 42.5017 66.1718 42.5 66.8784C42.5 67.5868 42.74 68.1809 43.22 68.6609C43.7 69.1409 44.2933 69.3801 45 69.3784ZM75 69.3784C75.7083 69.3784 76.3025 69.1384 76.7825 68.6584C77.2625 68.1784 77.5017 67.5851 77.5 66.8784C77.5 66.1701 77.26 65.5768 76.78 65.0984C76.3 64.6201 75.7067 64.3801 75 64.3784C74.2917 64.3784 73.6983 64.6184 73.22 65.0984C72.7417 65.5784 72.5017 66.1718 72.5 66.8784C72.5 67.5868 72.74 68.1809 73.22 68.6609C73.7 69.1409 74.2933 69.3801 75 69.3784ZM72.5 56.8784H83.125L77.5 49.3784H72.5V56.8784Z" fill="#434343"/>
</svg>
