<svg width="116" height="51" viewBox="0 0 116 51" fill="none" xmlns="http://www.w3.org/2000/svg">
<path d="M115.422 35.0771H110.555H105.688V41.6679H57.7111H9.7344L9.7344 35.0771H4.8672H0V46.9097H15.7394V50.0684C15.7394 51.1541 18.1003 50.858 20.9859 50.858C23.8714 50.858 26.2323 51.1541 26.2323 50.0684V46.9097H89.1899V50.0684C89.1899 51.1541 91.5508 50.858 94.4364 50.858C97.3219 50.858 99.6828 51.1541 99.6828 50.0684V46.9097H115.422V35.0771Z" fill="#D08C4D"/>
<path d="M18 9.04C19.1733 8.98666 20.32 8.96 21.44 8.96C22.5867 8.96 23.7867 9.08 25.04 9.32C26.32 9.56 27.5733 10.0133 28.8 10.68C30.0533 11.32 31.1067 12.16 31.96 13.2C32.84 14.2133 33.5467 15.56 34.08 17.24C34.6133 18.92 34.88 20.96 34.88 23.36C34.88 25.76 34.48 27.92 33.68 29.84C32.9067 31.7333 31.84 33.1867 30.48 34.2C27.84 36.1733 24.6533 37.16 20.92 37.16C19.6133 37.16 18.24 37.1067 16.8 37H14.8V9.04H18ZM18.12 36.68C18.68 36.7333 19.3867 36.76 20.24 36.76C21.0933 36.76 21.7333 36.7467 22.16 36.72C22.5867 36.6933 23.1733 36.5867 23.92 36.4C24.6667 36.1867 25.36 35.9067 26 35.56C26.64 35.2133 27.3067 34.7067 28 34.04C28.72 33.3467 29.3333 32.5333 29.84 31.6C30.9867 29.4133 31.56 26.56 31.56 23.04C31.56 20.5333 31.2533 18.3733 30.64 16.56C30.0267 14.72 29.32 13.36 28.52 12.48C27.7467 11.6 26.8 10.9067 25.68 10.4C24.56 9.86666 23.6667 9.56 23 9.48C22.3333 9.4 21.56 9.36 20.68 9.36C19.8 9.36 18.9467 9.4 18.12 9.48V36.68ZM42.1722 37C41.0789 37 40.2389 36.76 39.6522 36.28C39.0922 35.8 38.7989 35.32 38.7722 34.84L38.7322 34.16V17H41.5322V34.16C41.5322 34.9333 41.6789 35.5333 41.9722 35.96C42.2922 36.36 42.5989 36.5733 42.8922 36.6L43.3722 36.68H44.6122V37H42.1722ZM38.9722 12.52C38.6522 12.2 38.4922 11.8 38.4922 11.32C38.4922 10.84 38.6522 10.44 38.9722 10.12C39.2922 9.77333 39.6922 9.6 40.1722 9.6C40.6522 9.6 41.0522 9.77333 41.3722 10.12C41.7189 10.44 41.8922 10.84 41.8922 11.32C41.8922 11.8 41.7189 12.2 41.3722 12.52C41.0522 12.84 40.6522 13 40.1722 13C39.6922 13 39.2922 12.84 38.9722 12.52ZM60.1959 17.24L60.4359 17C60.5426 17.0533 60.6759 17.2133 60.8359 17.48C61.0226 17.7467 61.1293 17.9867 61.1559 18.2C61.2093 18.4133 61.2359 18.6133 61.2359 18.8C61.2359 19.52 61.0759 20.2533 60.7559 21L53.0759 37H52.6759L45.2359 17H48.0359L54.1559 33.56L60.3559 21C60.6759 20.44 60.8359 19.7733 60.8359 19C60.8359 18.2267 60.6226 17.64 60.1959 17.24ZM79.9638 37C78.1504 37 76.9104 36.6533 76.2438 35.96C75.6304 35.3733 75.3238 34.8667 75.3238 34.44V33.6C74.0171 35.9733 71.9238 37.16 69.0438 37.16C65.6838 37.16 63.7771 35.64 63.3238 32.6C63.2704 32.28 63.2438 31.96 63.2438 31.64C63.2438 31.2933 63.2971 30.92 63.4038 30.52C63.5104 30.12 63.8171 29.68 64.3238 29.2C65.3371 28.24 67.5638 27.6533 71.0038 27.44C71.8571 27.36 72.6438 27.32 73.3638 27.32C74.0838 27.32 74.7371 27.3467 75.3238 27.4V20.76C75.2704 20.7333 75.2704 20.6133 75.3238 20.4C75.3771 20.16 75.3238 19.8667 75.1638 19.52C75.0304 19.1467 74.8438 18.7867 74.6038 18.44C74.3638 18.0933 73.9371 17.8 73.3238 17.56C72.7104 17.2933 71.9104 17.16 70.9238 17.16C69.9371 17.16 68.7771 17.3467 67.4438 17.72C66.1371 18.0667 65.1771 18.4133 64.5638 18.76L64.4038 18.48C66.7771 17.3867 69.1904 16.84 71.6438 16.84C74.3904 16.84 76.2038 17.3333 77.0838 18.32C77.7771 19.0933 78.1238 19.9067 78.1238 20.76V34.16C78.1238 34.9333 78.2704 35.5333 78.5638 35.96C78.8838 36.36 79.2038 36.5733 79.5238 36.6L79.9638 36.68H81.2038V37H79.9638ZM69.6838 36.84C71.0971 36.84 72.3638 36.36 73.4838 35.4C74.6304 34.4133 75.2438 33.4667 75.3238 32.56V27.72C74.6038 27.6667 73.8704 27.64 73.1238 27.64C72.4038 27.64 71.6838 27.68 70.9638 27.76C68.9371 28 67.6171 28.4533 67.0038 29.12C66.3904 29.7867 66.0838 30.7067 66.0838 31.88C66.0838 32.0933 66.0971 32.3333 66.1238 32.6C66.3638 35.4267 67.5504 36.84 69.6838 36.84ZM100.005 37C98.9114 37 98.0714 36.76 97.4847 36.28C96.9247 35.8 96.6314 35.32 96.6047 34.84L96.5647 34.16V21.6C96.5647 19.4933 96.018 18.1467 94.9247 17.56C94.3647 17.2933 93.6714 17.16 92.8447 17.16C91.138 17.16 89.6047 17.84 88.2447 19.2C86.8847 20.5333 86.2047 21.7333 86.2047 22.8V37H83.4047V17H86.2047V21.56C86.658 20.4133 87.498 19.3467 88.7247 18.36C89.9514 17.3467 91.298 16.84 92.7647 16.84C94.2314 16.84 95.418 16.9867 96.3247 17.28C97.258 17.5467 97.938 17.9333 98.3647 18.44C99.0314 19.2667 99.3647 20.3333 99.3647 21.64V34.16C99.3647 34.9333 99.5114 35.5333 99.8047 35.96C100.125 36.36 100.445 36.5733 100.765 36.6L101.205 36.68H102.445V37H100.005Z" fill="black"/>
</svg>
