<svg width="8" height="12" viewBox="0 0 8 12" fill="none" xmlns="http://www.w3.org/2000/svg">
<path d="M1.36723 6.09245L7.83391 1.35186C7.88715 1.31366 7.92924 1.26831 7.95775 1.21842C7.98625 1.16854 8.00061 1.11512 7.99998 1.06125C7.99935 1.00738 7.98376 0.954138 7.95409 0.904599C7.92443 0.855059 7.88129 0.810209 7.82716 0.772642C7.77304 0.735075 7.70901 0.705538 7.63878 0.685739C7.56854 0.665941 7.4935 0.656275 7.418 0.6573C7.3425 0.658326 7.26803 0.670022 7.1989 0.691713C7.12978 0.713404 7.06737 0.744658 7.01529 0.783668L0.161773 5.80835C0.05804 5.88441 0 5.98634 0 6.09245C0 6.19857 0.05804 6.30049 0.161773 6.37655L7.01529 11.4012C7.06737 11.4402 7.12978 11.4715 7.1989 11.4932C7.26803 11.5149 7.3425 11.5266 7.418 11.5276C7.4935 11.5286 7.56854 11.519 7.63878 11.4992C7.70901 11.4794 7.77304 11.4498 7.82716 11.4123C7.88129 11.3747 7.92443 11.3298 7.95409 11.2803C7.98376 11.2308 7.99935 11.1775 7.99998 11.1237C8.00061 11.0698 7.98625 11.0164 7.95775 10.9665C7.92924 10.9166 7.88715 10.8712 7.83391 10.833L1.36723 6.09245Z" fill="black"/>
</svg>
