<svg width="17" height="17" viewBox="0 0 17 17" fill="none" xmlns="http://www.w3.org/2000/svg">
<path d="M8.5 8.5C7.33125 8.5 6.33073 8.08385 5.49844 7.25156C4.66615 6.41927 4.25 5.41875 4.25 4.25C4.25 3.08125 4.66615 2.08073 5.49844 1.24844C6.33073 0.416146 7.33125 0 8.5 0C9.66875 0 10.6693 0.416146 11.5016 1.24844C12.3339 2.08073 12.75 3.08125 12.75 4.25C12.75 5.41875 12.3339 6.41927 11.5016 7.25156C10.6693 8.08385 9.66875 8.5 8.5 8.5ZM0 17V14.025C0 13.4229 0.155125 12.8697 0.465375 12.3654C0.775625 11.861 1.18717 11.4757 1.7 11.2094C2.79792 10.6604 3.91354 10.2489 5.04687 9.97475C6.18021 9.70062 7.33125 9.56321 8.5 9.5625C9.66875 9.5625 10.8198 9.69992 11.9531 9.97475C13.0865 10.2496 14.2021 10.6611 15.3 11.2094C15.8135 11.475 16.2254 11.8603 16.5357 12.3654C16.8459 12.8704 17.0007 13.4236 17 14.025V17H0Z" fill="#545454"/>
</svg>
