<svg width="31" height="57" viewBox="0 0 31 57" fill="none" xmlns="http://www.w3.org/2000/svg">
<path d="M1.47015 51.7072C1.21829 51.9738 1.0214 52.2873 0.890705 52.6299C0.760012 52.9725 0.69808 53.3375 0.708448 53.7041C0.718817 54.0706 0.801283 54.4316 0.951138 54.7662C1.10099 55.1009 1.3153 55.4028 1.58182 55.6547C1.84834 55.9065 2.16187 56.1034 2.50448 56.2341C2.8471 56.3648 3.2121 56.4267 3.57865 56.4164C3.94521 56.406 4.30613 56.3235 4.64081 56.1737C4.97549 56.0238 5.27738 55.8095 5.52924 55.543L29.2584 30.418C29.7484 29.8997 30.0215 29.2134 30.0215 28.5001C30.0215 27.7868 29.7484 27.1006 29.2584 26.5822L5.52924 1.45445C5.27904 1.18209 4.97722 0.962158 4.64131 0.80743C4.30539 0.652702 3.94209 0.566265 3.57248 0.553135C3.20288 0.540005 2.83436 0.600445 2.48831 0.730942C2.14227 0.861439 1.8256 1.05939 1.5567 1.31331C1.28781 1.56722 1.07204 1.87204 0.921947 2.21004C0.771849 2.54805 0.690411 2.91251 0.682358 3.28226C0.674305 3.652 0.739799 4.01966 0.875038 4.36389C1.01028 4.70811 1.21257 5.02202 1.47015 5.2874L23.3903 28.5001L1.47015 51.7072Z" fill="#545454"/>
</svg>
