<svg width="31" height="57" viewBox="0 0 31 57" fill="none" xmlns="http://www.w3.org/2000/svg">
<path d="M29.5298 5.29276C29.7817 5.02623 29.9786 4.71271 30.1093 4.3701C30.24 4.02748 30.3019 3.66247 30.2916 3.29592C30.2812 2.92937 30.1987 2.56845 30.0489 2.23377C29.899 1.89909 29.6847 1.5972 29.4182 1.34534C29.1517 1.09348 28.8381 0.896584 28.4955 0.765891C28.1529 0.635197 27.7879 0.573267 27.4213 0.583636C27.0548 0.594005 26.6939 0.676471 26.3592 0.826324C26.0245 0.976177 25.7226 1.19048 25.4708 1.45701L1.7416 26.582C1.25156 27.1003 0.978516 27.7866 0.978516 28.4999C0.978516 29.2132 1.25156 29.8994 1.7416 30.4178L25.4708 55.5456C25.721 55.8179 26.0228 56.0378 26.3587 56.1926C26.6946 56.3473 27.0579 56.4337 27.4275 56.4469C27.7971 56.46 28.1656 56.3996 28.5117 56.2691C28.8577 56.1386 29.1744 55.9406 29.4433 55.6867C29.7122 55.4328 29.928 55.128 30.0781 54.79C30.2282 54.452 30.3096 54.0875 30.3176 53.7177C30.3257 53.348 30.2602 52.9803 30.125 52.6361C29.9897 52.2919 29.7874 51.978 29.5298 51.7126L7.60968 28.4999L29.5298 5.29276Z" fill="#545454"/>
</svg>
