<svg width="45" height="26" viewBox="0 0 45 26" fill="none" xmlns="http://www.w3.org/2000/svg">
<path d="M42 25.3784H3C2.20435 25.3784 1.44129 25.115 0.87868 24.6462C0.316071 24.1773 0 23.5415 0 22.8784L0 2.87842C0 2.21538 0.316071 1.57949 0.87868 1.11065C1.44129 0.64181 2.20435 0.378418 3 0.378418L42 0.378418C42.7956 0.378418 43.5587 0.64181 44.1213 1.11065C44.6839 1.57949 45 2.21538 45 2.87842V22.8784C45 23.5415 44.6839 24.1773 44.1213 24.6462C43.5587 25.115 42.7956 25.3784 42 25.3784ZM22.3 15.7555L21.8513 18.0992C22.9981 18.5015 24.2365 18.6902 25.48 18.6524H25.4662C26.9234 18.7232 28.3664 18.3806 29.56 17.6805L29.5387 17.692C30.0261 17.3935 30.4223 17.0037 30.6955 16.554C30.9687 16.1043 31.1111 15.6074 31.1112 15.1034V15.0878C31.1112 13.942 30.1912 12.9909 28.3775 12.2555C27.8826 12.0565 27.4092 11.8223 26.9625 11.5555L26.9913 11.5722C26.8665 11.5048 26.7626 11.4139 26.6881 11.3067C26.6136 11.1995 26.5706 11.0792 26.5625 10.9555V10.9534C26.5718 10.8244 26.6202 10.6995 26.703 10.5902C26.7858 10.4809 26.9005 10.3909 27.0362 10.3284L27.0412 10.3263C27.4608 10.1246 27.9429 10.0314 28.4262 10.0586H28.4188H28.5188L28.615 10.0576C29.42 10.0576 30.1838 10.2024 30.8725 10.4618L30.8375 10.4503L31.13 10.5805L31.5788 8.31904C30.6712 8.02578 29.7059 7.87669 28.7325 7.87946H28.6712H28.675C27.2666 7.82807 25.8779 8.16972 24.7288 8.85029L24.7487 8.83883C24.2711 9.11976 23.8814 9.49211 23.6124 9.92461C23.3433 10.3571 23.2027 10.8371 23.2025 11.3243V11.3295C23.19 12.4315 24.1425 13.3836 26.035 14.1628C26.535 14.3451 26.9662 14.568 27.3525 14.8357L27.3438 14.8295C27.4552 14.9076 27.5459 15.0043 27.6098 15.1134C27.6737 15.2225 27.7096 15.3415 27.715 15.4628V15.467C27.715 15.7993 27.4775 16.0847 27.135 16.2128L27.1287 16.2149C26.7537 16.3795 26.3088 16.4753 25.8363 16.4753H25.7787H25.7812H25.6875C24.6162 16.4753 23.6012 16.2774 22.6912 15.9232L22.735 15.9388L22.3062 15.7597L22.3 15.7555ZM34.9562 16.944H39.1C39.1667 17.1822 39.2971 17.7031 39.4912 18.5065H42.5L39.8825 8.05758H37.3825C37.0251 8.03119 36.667 8.10157 36.3614 8.25826C36.0558 8.41496 35.8191 8.64961 35.6862 8.92738L35.6825 8.93675L30.8825 18.5065H34.2825L34.965 16.9451L34.9562 16.944ZM18.6138 8.05758L16.5813 18.5065H19.8237L21.855 8.05758H18.6138ZM6.1525 10.1899L8.79 18.4899H12.2075L17.3013 8.05758H13.8688L10.7013 15.1868L10.3687 13.7378L9.23875 8.93675C9.17817 8.65984 8.99088 8.41336 8.71638 8.24933C8.44189 8.08531 8.10167 8.01655 7.7675 8.05758L7.775 8.05654H2.54125L2.5025 8.268C6.5325 9.12113 9.18 10.9618 10.3725 13.7368C10.006 12.9438 9.441 12.2251 8.715 11.6284L8.71375 11.6274C8.00052 11.0171 7.14737 10.5325 6.205 10.2024L6.155 10.1868L6.1525 10.1899ZM38.5737 14.7951H35.8737C36.0562 14.3937 36.4863 13.4215 37.1637 11.8784L37.2213 11.7315L37.4212 11.3086C37.5037 11.1357 37.5588 10.994 37.5962 10.8857L37.8312 11.7805L38.5725 14.7909L38.5737 14.7951Z" fill="white"/>
</svg>
